<svg xmlns="http://www.w3.org/2000/svg" viewBox="0 0 96 96">
  <defs><linearGradient id="g" x1="0" y1="0" x2="1" y2="1"><stop offset="0" stop-color="#7c4dff"/><stop offset="1" stop-color="#00c2ff"/></linearGradient></defs>
  <rect width="96" height="96" rx="28" fill="url(#g)"/>
  <path d="M25 58c-6-18-2-36 9-47 7-7 15-7 23 0 8-7 16-7 23 0 11 11 15 29 9 47-6 18-20 28-32 28S31 76 25 58Z" fill="#fff" opacity=".96"/>
  <circle cx="39" cy="40" r="11" fill="#17233e"/><circle cx="57" cy="40" r="11" fill="#17233e"/>
  <circle cx="35" cy="36" r="3" fill="#fff"/><circle cx="53" cy="36" r="3" fill="#fff"/>
  <path d="M48 51l-9 10h18l-9-10Z" fill="#ffb347"/>
</svg>
